<svg width="13" height="13" viewBox="0 0 13 13" fill="none" xmlns="http://www.w3.org/2000/svg">
<path d="M1.00475 12.1703C0.738183 11.912 0.708672 11.5018 0.9226 11.2164L0.981157 11.1478L10.9723 0.838171C11.1748 0.629228 11.4843 0.565299 11.7576 0.675523C11.8471 0.711596 11.9274 0.764108 11.995 0.829679C12.1084 0.939527 12.1856 1.08471 12.2101 1.24367L12.2182 1.34052L12.3911 9.57157C12.3996 9.97034 12.0825 10.2961 11.6837 10.2988C11.3174 10.3006 11.0085 10.0309 10.9535 9.67826L10.9449 9.58017L10.809 3.10031L2.02746 12.1618C1.7517 12.4464 1.29353 12.4502 1.00475 12.1703ZM3.28194 2.15405C2.88244 2.15873 2.55111 1.83763 2.54053 1.4382C2.53147 1.07267 2.79598 0.767314 3.14785 0.715355L3.24584 0.707611L7.78579 0.661051C7.98691 0.658699 8.16946 0.738315 8.30408 0.868781C8.43731 0.997894 8.52191 1.17718 8.5272 1.3769C8.5369 1.74305 8.273 2.04788 7.92069 2.09923L7.82256 2.1068L3.28194 2.15405Z" fill="white"/>
</svg>
